<?xml version="1.0" standalone="no"?>
<!DOCTYPE svg PUBLIC "-//W3C//DTD SVG 20010904//EN"
 "http://www.w3.org/TR/2001/REC-SVG-20010904/DTD/svg10.dtd">
<svg version="1.0" xmlns="http://www.w3.org/2000/svg"
 width="512.000000pt" height="512.000000pt" viewBox="0 0 512.000000 512.000000"
 preserveAspectRatio="xMidYMid meet">
<metadata>
Created by potrace 1.14, written by Peter Selinger 2001-2017
</metadata>
<g transform="translate(0.000000,512.000000) scale(0.100000,-0.100000)"
fill="#000000" stroke="none">
<path d="M3003 5104 c-209 -45 -385 -194 -466 -394 -14 -36 -29 -81 -33 -100
-5 -19 -9 -38 -10 -42 -1 -5 -2 -35 -3 -67 l-1 -59 -102 0 c-157 1 -274 -37
-398 -127 -36 -26 -69 -52 -75 -59 -9 -9 -80 -73 -214 -191 -18 -16 -39 -35
-45 -40 -6 -6 -72 -64 -146 -130 -74 -66 -137 -122 -140 -125 -3 -3 -63 -57
-135 -120 -71 -63 -139 -124 -151 -135 -11 -11 -49 -45 -84 -75 -34 -30 -75
-66 -90 -80 -15 -14 -61 -54 -101 -90 -71 -62 -109 -96 -193 -171 -139 -123
-205 -222 -245 -367 -19 -71 -23 -237 -7 -306 60 -251 269 -455 516 -502 114
-22 268 -5 374 40 22 9 42 13 46 9 4 -5 16 -32 28 -60 44 -111 145 -234 244
-296 46 -30 96 -54 233 -112 107 -45 664 -273 682 -279 30 -9 65 26 92 94 33
83 37 93 51 122 l13 27 19 -25 c56 -70 171 -74 229 -8 47 54 44 152 -6 204
-29 30 -84 49 -129 44 -21 -2 -26 1 -22 12 3 8 21 52 40 97 53 125 141 338
194 469 26 65 49 112 51 105 5 -16 118 -294 135 -332 7 -16 18 -41 24 -55 15
-33 178 -431 203 -493 l19 -48 -28 4 c-107 15 -209 -87 -200 -199 11 -130 142
-210 261 -160 38 16 94 76 103 111 3 14 14 29 23 34 9 5 187 79 396 165 525
217 545 228 657 367 151 188 181 467 73 686 l-35 71 41 79 c58 113 79 202 75
321 -7 177 -27 231 -181 472 -23 36 -58 92 -79 125 -20 33 -125 200 -231 370
-107 171 -209 335 -227 365 -18 30 -42 69 -53 86 -11 18 -71 115 -134 216
-167 267 -208 327 -271 388 -66 63 -164 121 -259 151 -83 26 -241 33 -328 13z
m7 -1662 c22 -35 40 -67 40 -72 0 -6 5 -10 10 -10 6 0 10 -7 10 -15 0 -8 5
-15 10 -15 6 0 10 -4 10 -9 0 -5 95 -160 210 -345 116 -185 210 -339 210 -343
0 -5 -83 -41 -183 -82 -252 -102 -307 -129 -308 -149 0 -13 -3 -12 -11 5 -7
15 -62 43 -197 98 -102 43 -199 84 -216 91 -16 7 -82 34 -145 60 -63 25 -133
54 -155 64 -22 10 -50 21 -62 24 -28 9 -29 17 -5 37 9 8 44 39 77 68 92 82
116 104 315 281 102 90 205 184 229 209 51 54 111 140 111 160 0 19 2 16 50
-57z"/>
<path d="M2524 990 c-52 -23 -81 -56 -92 -105 -11 -51 -7 -80 19 -122 76 -123
270 -77 286 69 13 116 -108 206 -213 158z"/>
<path d="M3185 801 c-64 -29 -94 -77 -89 -144 8 -103 121 -170 210 -124 49 26
76 62 81 111 7 56 0 84 -29 117 -47 54 -112 69 -173 40z"/>
<path d="M2717 394 c-58 -20 -93 -50 -117 -100 -51 -105 -6 -236 95 -274 65
-25 112 -24 171 5 130 63 153 237 43 329 -57 49 -126 63 -192 40z"/>
</g>
</svg>
